<?xml version="1.0" encoding="UTF-8"?>
<svg width="25px" height="29px" viewBox="0 0 25 29" version="1.1" xmlns="http://www.w3.org/2000/svg" xmlns:xlink="http://www.w3.org/1999/xlink">
    <!-- Generator: Sketch 58 (84663) - https://sketch.com -->
    <title>noun_ebook_3680699</title>
    <desc>Created with Sketch.</desc>
    <g id="Page-1" stroke="none" stroke-width="1" fill="none" fill-rule="evenodd">
        <g id="Start" transform="translate(-769.000000, -609.000000)" fill="#FFFFFF" fill-rule="nonzero">
            <g id="Group-5" transform="translate(-75.000000, 134.000000)">
                <g id="Right" transform="translate(811.000000, 0.000000)">
                    <g id="Group" transform="translate(21.000000, 468.000000)">
                        <g id="noun_ebook_3680699" transform="translate(11.999999, 7.200000)">
                            <path d="M24.6631653,2.24761734 C24.5767922,2.1835084 24.4640525,2.16499807 24.3617685,2.19479518 L14.9780099,4.98037381 L21.617376,1.08598139 C21.779212,0.990720917 21.8333088,0.783044066 21.7373892,0.622320242 C21.6419241,0.461596418 21.4332648,0.407419848 21.2705197,0.502680317 L13.7742412,4.90046337 L17.1918896,0.546924516 C17.3073568,0.399293363 17.2809903,0.186650326 17.1323376,0.0719765869 C16.9836849,-0.0436000954 16.770025,-0.0169632819 16.6536486,0.130667871 L12.3813608,5.57315578 L7.40945074,0.1112546 C7.28307322,-0.0273471244 7.06804958,-0.037730967 6.92803419,0.087326615 C6.7884734,0.212384197 6.77756311,0.426833119 6.90394064,0.565434844 L10.7066313,4.74289985 L3.26308592,0.50042296 C3.10034076,0.406968377 2.89168146,0.462950832 2.79758021,0.625480542 C2.70393356,0.78755878 2.76030339,0.99478416 2.92350314,1.08778727 L9.6769727,4.93703256 L0.43868458,2.19479518 C0.335036824,2.1645466 0.223660946,2.18395987 0.136833221,2.24761734 C0.0504600916,2.31127481 0,2.41195293 0,2.51895166 L0,19.7028567 C0,19.8590658 0.107284519,19.9945072 0.26002858,20.0319793 L7.50537038,21.7918149 L7.50537038,26.6379091 C7.50537038,27.388706 8.12043798,28 8.87688476,28 L15.9231138,28 C16.6795605,28 17.2950827,27.388706 17.2950827,26.6379091 L17.2950827,21.7922664 L24.5404245,20.0319793 C24.692714,19.9949587 24.7999985,19.8590658 24.7999985,19.7028567 L24.7999985,2.51895166 C24.7999985,2.41195293 24.7490838,2.31127481 24.6631653,2.24761734 Z M0.681893129,19.43694 L0.681893129,2.97358337 L12.0595073,6.35104103 L12.0595073,18.2775614 L8.87688476,18.2775614 C8.12043798,18.2775614 7.50537038,18.8888537 7.50537038,19.6396507 L7.50537038,21.094743 L0.681893129,19.43694 Z M16.6131896,26.6379091 C16.6131896,27.0153392 16.3036101,27.3227912 15.9231138,27.3227912 L8.87688476,27.3227912 C8.49684299,27.3227912 8.18726351,27.0153392 8.18726351,26.6379091 L8.18726351,19.6396507 C8.18726351,19.2622206 8.49638839,18.9547685 8.87688476,18.9547685 L15.9231138,18.9547685 C16.3036101,18.9547685 16.6131896,19.2622206 16.6131896,19.6396507 L16.6131896,26.6379091 Z M24.1181054,19.43694 L17.2946281,21.094743 L17.2946281,19.6396507 C17.2946281,18.8888537 16.6791059,18.2775614 15.9226592,18.2775614 L12.7409458,18.2775614 L12.7409458,6.35104103 L24.1176508,2.97358337 L24.1176508,19.43694 L24.1181054,19.43694 Z" id="Shape"></path>
                            <path d="M9.26859524,9.59999943 C9.41405156,9.59999943 9.54712861,9.49796052 9.58780333,9.3418457 C9.63687826,9.15422578 9.533423,8.95955248 9.35701853,8.90782769 L3.62011521,7.21313546 C3.44371073,7.16047022 3.26067451,7.27097318 3.2120417,7.45859311 C3.16340889,7.64621303 3.26642203,7.84088633 3.4428265,7.89261112 L9.17972983,9.58730334 C9.20935163,9.5957674 9.23941555,9.59999943 9.26859524,9.59999943 Z" id="Path"></path>
                            <path d="M15.5127541,9.59999943 C15.5390397,9.59999943 15.5657426,9.59623741 15.5920282,9.58871338 L21.3661005,7.89392555 C21.5329933,7.84501935 21.6335462,7.65221608 21.5897368,7.46364507 C21.5463447,7.27460381 21.3736107,7.16315411 21.2079696,7.2111198 L15.4338973,8.90590763 C15.2670045,8.95481383 15.1664517,9.1476171 15.210261,9.33618811 C15.2469774,9.494663 15.3738159,9.59999943 15.5127541,9.59999943 Z" id="Path"></path>
                            <path d="M14.6207787,23.3061715 L13.161635,24.4711097 L13.161635,21.1703691 C13.161635,20.9659247 13.0003081,20.7999988 12.8015304,20.7999988 C12.6027527,20.7999988 12.4414258,20.9659247 12.4414258,21.1703691 L12.4414258,24.4720973 L10.9808417,23.3061715 C10.8238361,23.181727 10.5972103,23.210369 10.475735,23.3718505 C10.3537796,23.5333319 10.3821079,23.7664183 10.5391134,23.8918504 L12.5806663,25.5219738 C12.5941102,25.5323442 12.6094746,25.5372824 12.6233987,25.5456775 C12.6339617,25.5520972 12.6430844,25.5599985 12.6536475,25.5654306 C12.6598893,25.5683935 12.6661311,25.5703688 12.672853,25.5733318 C12.7136649,25.5891343 12.7563973,25.5995046 12.7991297,25.5995046 C12.7996098,25.5995046 12.7996098,25.5999985 12.80009,25.5999985 L12.80009,25.5999985 L12.80009,25.5999985 C12.80009,25.5999985 12.80009,25.5999985 12.80009,25.5999985 L12.80009,25.5999985 C12.8010503,25.5999985 12.8020105,25.5995046 12.8029708,25.5995046 C12.8447429,25.5990108 12.8865151,25.5891343 12.9263666,25.5733318 C12.9335687,25.5708627 12.9407708,25.5683935 12.9474928,25.5649367 C12.9580558,25.5599985 12.9666984,25.5516034 12.9767813,25.5456775 C12.9907053,25.5367886 13.0065499,25.532838 13.0195137,25.5219738 L15.0605864,23.8918504 C15.217592,23.7659245 15.2464003,23.5333319 15.1244449,23.3718505 C15.0039299,23.2108628 14.7782644,23.1812332 14.6207787,23.3061715 Z" id="Path"></path>
                        </g>
                    </g>
                </g>
            </g>
        </g>
    </g>
</svg>