<svg width="182" height="55" xmlns="http://www.w3.org/2000/svg"><g fill-rule="nonzero" fill="none"><path d="M40.8 6.426H11.73a7.313 7.313 0 00-7.344 7.344v27.54c.714-.204.306-4.794.204-4.998.306-.612.714-1.122 1.326-1.428-.102-.204-.204-.408-.204-.714.408-.306.714-.612 1.02-.918v-.408c0-3.876 2.244-7.242 5.61-8.874 0-.102.102-.102.204-.102.204-.102.306-.102.51-.204 0-.102-.204-.102-.204-.306h.408c.204-.102-.204-.408 0-.51.306-.204.918 0 1.02-.204 0-.408-.408.102-.51-.204.408-.102.714-.306.918-.612 0-.51-.102-.51-.204-.816.816-.714.204-3.06.612-3.774-.102-.204-.102.204-.306.102 0-.306 0-.51-.204-.714.306-.408.51-.918 1.02-1.122-.204-.612.408-.918.612-1.428-.102-1.122 0-1.734.51-2.346-.408-1.02-.408-3.57.816-3.774.204.204 0 .408 0 .714.51.408.612.816.612 1.53 0 .714-.51 1.428-.51 2.04 0 .306.306.408.306.714.102.51-.102 1.02 0 1.428.102.51 1.122 1.938 1.428 2.346-.204 1.326-.51 2.856-.204 4.284.102.102.204.204.306.204-.204.306-.102.816-.204 1.122.204.204.51.204.408.714.306.102.612.102.918.204-.102.306 0 .612.102.816 3.57 1.53 6.018 4.998 6.018 9.078h.306c.102.204-.102.204-.306.204v.102c.204.816 1.428.918 1.224 1.836.51.51.612.918.714 1.836h-.204c-.204 1.326 0 2.856-.102 4.182.204.306.408.612.408 1.122.612-.408 1.02 0 1.632.306-.204.51.102.714.204 1.224-.204.102-.204.306-.306.408.306 1.122-.306 2.754-.102 4.08 0 .102.102.102.204.102 0 .204 0 .51-.204.51.102.102.306.204.306.306-.102.306-.51.408-.408.714.102.204.204.102.408.102v.306H40.8a7.313 7.313 0 007.344-7.344V13.872c0-4.08-3.264-7.446-7.344-7.446z" fill="#4483C1"/><path d="M41.616 2.856h-30.6c-5.61 0-10.2 4.59-10.2 10.2v30.6c0 5.61 4.59 10.2 10.2 10.2h30.6c5.61 0 10.2-4.59 10.2-10.2v-30.6c0-5.61-4.59-10.2-10.2-10.2zm8.568 40.8c0 4.692-3.876 8.568-8.568 8.568h-30.6c-4.692 0-8.568-3.876-8.568-8.568v-30.6c0-4.692 3.876-8.568 8.568-8.568h30.6c4.692 0 8.568 3.876 8.568 8.568v30.6zm107.61-28.764c-.204 0-.408-.102-1.326-1.02-.204-.102-2.448-2.346-4.08-4.182l-.51-.51c-1.428-1.53-2.754-2.856-3.366-3.57l.204 6.834c0 1.326.204 1.53.51 1.632.204.102.612.102.714.102.102 0 .204.102.204.306 0 .102-.102.204-.408.204h-1.632-1.53c-.102 0-.408 0-.408-.204 0-.102.102-.306.204-.306s.408 0 .612-.102c.306-.102.408-.408.408-1.734v-8.67c0-.51 0-.918.306-.918.204 0 .408.204.612.51l1.122 1.122c.918 1.02 2.448 2.55 3.876 4.08 1.02 1.122 2.142 2.244 2.958 3.06l.612.612-.204-7.344c0-1.02-.102-1.224-.51-1.326-.306-.102-.612-.102-.714-.102-.102 0-.204-.102-.204-.306 0-.204.306-.204.408-.204h2.958c.102 0 .408 0 .408.204 0 .102-.102.306-.306.306h-.306c-.306.204-.306.408-.306 1.326v8.976c-.102 1.02-.102 1.224-.306 1.224zm-18.666-9.384s.102 0 0 0c.102 0 .102 0 0 0l1.53 4.08h-3.06l1.53-4.08zm6.834 9.078c0-.204-.102-.306-.306-.306-.102 0-.306 0-.612-.102-.204-.102-.714-.204-1.224-1.632-.51-1.224-1.428-3.366-2.142-5.304-.816-1.938-1.428-3.57-1.632-3.978 0-.102-.102-.102-.102-.204-.102-.306-.204-.408-.408-.408s-.306.204-.51.714l-3.774 9.588c-.306.816-.612 1.224-1.224 1.326h-.51c-.102 0-.306.102-.306.306 0 .204.306.204.408.204h2.958c.306 0 .408-.204.408-.204 0-.102-.102-.306-.306-.306-.102 0-.408 0-.408-.306 0-.204.102-.612.204-1.02l.918-2.448h3.672l1.428 3.468v.204l-.102.102a.22.22 0 00-.204.204c0 .204.204.204.51.204H145.35c.51.102.612-.102.612-.102zm-13.77 0c.306-.102.408-.204.51-.51.204-.51.408-1.836.408-2.04 0-.204-.102-.306-.306-.306-.204 0-.306.204-.306.306 0 .204-.204.918-.612 1.224-.612.612-1.326.714-2.55.714-3.162 0-5.61-2.346-5.61-5.406 0-1.326.204-2.754 1.428-3.876.714-.714 1.836-1.02 3.468-1.02 1.224 0 2.448.306 3.06.816.408.306.612.816.612 1.428 0 .204 0 .408.204.408.102 0 .306-.102.306-.408V5.1v-.714c0-.306 0-.51.102-.612V3.57c0-.204-.102-.306-.306-.306-.408 0-.816-.102-1.326-.204l-.306-.102c-.714-.102-1.632-.204-2.346-.204-2.142 0-3.774.51-4.896 1.632-1.326 1.326-1.836 3.06-1.836 4.284 0 1.938.612 3.468 1.938 4.59 1.326 1.122 2.958 1.632 5.304 1.632.714.102 2.244.102 3.06-.306zm-11.934 0c0-.102-.102-.306-.306-.306-.102 0-.51 0-.714-.102-.408-.102-.408-.204-.51-.714-.102-.612-.102-1.836-.102-3.264V7.548 4.284c0-.51.102-.612.51-.714h.408a.22.22 0 00.204-.204c0-.204-.306-.204-.408-.204h-1.53H116.178c-.102 0-.408 0-.408.204a.22.22 0 00.204.204c.102 0 .306 0 .51.102.204 0 .408.204.408.714v5.916c0 1.734 0 2.754-.102 3.264-.102.51-.102.612-.306.714-.102 0-.306.102-.408.102-.204 0-.306.102-.306.306 0 .102.102.204.408.204h3.672c.408-.102.408-.306.408-.306zm-4.386 0c0-.102-.102-.306-.306-.306h-.51c-.306 0-.816-.102-1.734-1.02s-1.938-2.244-3.162-3.774v-.102c1.326-1.122 1.938-2.244 1.938-3.468 0-1.02-.612-1.836-1.122-2.142-.816-.612-2.04-.714-3.06-.714h-1.938H104.142c-.102 0-.408 0-.408.204a.22.22 0 00.204.204h.51c.408.102.51.204.51.714v5.916c0 1.428 0 2.652-.102 3.264-.102.408-.102.612-.306.714-.102 0-.306.102-.408.102-.204 0-.204.102-.204.306 0 .102.102.204.408.204H107.916c.306 0 .408-.204.408-.204 0-.204-.102-.306-.306-.306-.102 0-.51 0-.714-.102-.408-.102-.51-.204-.51-.714-.102-.612-.102-1.836-.102-3.264v-.306h2.142c.204.204.408.51.612.816.306.408.714.918 1.02 1.428.918 1.122 1.53 1.938 2.244 2.244.408.204.918.306 1.734.306h1.02c.102.204.408.204.408 0zm-8.16-10.812c1.632 0 2.652 1.122 2.652 2.856 0 1.02-.306 1.836-.918 2.244-.306.204-.714.204-1.122.204-.714 0-1.53-.102-1.632-.204-.102 0-.102-.102-.102-.102V3.876v-.102h1.122zM100.98 14.28c.102-.306.204-1.428.204-1.53 0-.306-.102-.408-.204-.408-.204 0-.306.204-.306.306-.102.612-.306.816-.612.918-.408.102-1.122.102-1.53.102-1.53 0-1.734-.204-1.734-1.122v-1.938V8.67c.306 0 1.938 0 2.346.102.612.102.714.306.714.408.102.204.102.306.102.51 0 .204.102.306.204.306.204 0 .306-.204.306-.408 0-.102 0-.612.102-1.02 0-.306.102-.51.102-.714V7.65c0-.204-.102-.204-.204-.204s-.204.102-.306.204l-.102.102c-.102.102-.306.102-.714.204h-2.55v-4.08c.306 0 2.04 0 2.244.102.816.102.918.204 1.02.408.102.204.102.408.102.51 0 .306.204.306.204.306.102 0 .204-.102.306-.306 0-.102 0-.408.102-.612v-.408c0-.306.102-.408.102-.51v-.204c0-.204-.102-.306-.204-.306s-.102 0-.204.102h-.102c-.102 0-.408.102-.612.102H95.982 94.146c-.102 0-.408 0-.408.204a.22.22 0 00.204.204h.51c.408.102.51.306.612.714v5.916c0 1.428 0 2.652-.102 3.264-.102.408-.102.612-.306.612h-.51c-.204 0-.204.102-.204.306 0 .204.102.204.408.204h5.712c.51.306.816.306.918-.204zm30.804 39.066c1.326-1.122 1.53-3.264 1.53-4.692v-1.632-1.734-1.53c0-.51.102-.612.408-.714h.408c.102 0 .306-.102.306-.204 0-.204-.306-.204-.408-.204h-1.326-1.734c-.102 0-.408 0-.408.204a.22.22 0 00.204.204h.51c.408.102.51.204.51.714v5.202c0 1.326-.102 2.754-.816 3.57-.51.612-1.428 1.02-2.346 1.02-.918 0-1.53-.102-2.244-.816-.612-.51-1.122-1.326-1.122-3.672V46.92v-3.264c0-.51.102-.714.408-.714h.408c.102 0 .306-.102.306-.204 0-.204-.102-.204-.408-.204h-1.632-1.836c-.204 0-.408.102-.408.204a.22.22 0 00.204.204h.51c.408.102.51.204.51.714v5.508c0 2.448.714 3.468 1.428 4.08.816.714 1.938 1.122 3.366 1.122 1.224.102 2.448 0 3.672-1.02zm-42.126.612c1.02-.612 1.53-1.53 1.53-2.754 0-1.428-.816-2.55-2.652-3.774l-.408-.306c-1.632-1.122-2.04-1.632-2.04-2.448 0-1.122 1.02-1.53 1.938-1.53 1.53 0 1.938.714 1.938.714.102.102.204.51.204.714 0 .102 0 .306.306.306s.306-.306.306-.51c0-.816 0-1.326.102-1.53v-.102c0-.204-.204-.204-.306-.204-.102 0-.204 0-.51-.102a7.098 7.098 0 00-1.632-.204c-2.244 0-3.672 1.224-3.672 3.06 0 1.122.714 2.142 2.346 3.366l.714.51c1.428 1.02 1.938 1.53 1.938 2.55 0 1.224-.816 1.938-2.244 1.938-.51 0-2.04-.102-2.346-1.428-.102-.204-.102-.408-.102-.51 0-.306-.204-.306-.306-.306-.102 0-.204 0-.204.408v.102c0 .306-.102.816-.102 1.53 0 .408 0 .51.306.714.612.306 1.428.408 2.346.408 1.122-.102 2.04-.306 2.55-.612zm-8.364-.816v-8.976c0-1.02.102-1.122.408-1.224h.306c.204 0 .306-.102.306-.306 0-.204-.306-.204-.408-.204h-2.958c-.102 0-.408 0-.408.204s.102.306.306.306c.102 0 .51 0 .714.102.408.102.51.306.51 1.326l.204 7.344-.408-.408c-.816-.816-1.938-2.04-3.06-3.264-1.632-1.734-3.264-3.366-4.182-4.386-.408-.51-.714-.816-.816-.918l-.102-.102c-.204-.204-.408-.408-.612-.408-.306 0-.306.408-.306.918v8.772c0 1.428-.102 1.734-.408 1.836-.204.102-.51.102-.612.102-.102 0-.204.102-.204.306 0 .204.306.204.408.204h3.162c.306 0 .408-.102.408-.204s-.102-.306-.204-.306-.51 0-.714-.102c-.306-.102-.51-.306-.51-1.632l-.204-6.834c.612.714 2.04 2.142 3.468 3.672l.408.408c1.734 1.734 3.978 3.978 4.08 4.182.918.816 1.122 1.02 1.326 1.02.102-.204.102-.306.102-1.428zm72.134.512c.102-.306.204-1.428.204-1.53 0-.306-.102-.408-.204-.408-.204 0-.306.204-.306.306-.102.612-.306.816-.612.918-.408.204-1.122.204-1.53.204-1.53 0-1.734-.204-1.734-1.122v-1.938-1.836c.408 0 1.938 0 2.346.102.612.102.714.306.714.408.102.204.102.306.102.51 0 .204.102.306.204.306.204 0 .306-.204.306-.408 0-.102 0-.714.102-1.02 0-.306.102-.51.102-.714v-.204c0-.204-.102-.204-.204-.204s-.204.102-.306.204l-.102.102c-.102.102-.306.102-.612.204h-2.55v-4.182h2.244c.918.102.918.204 1.02.408.102.102.102.408.102.51 0 .204.102.306.204.306s.204-.102.306-.306c0-.102 0-.408.102-.714v-.306c0-.306.102-.408.102-.51v-.204c0-.204-.102-.306-.204-.306s-.102 0-.204.102h-.102c-.102 0-.408.102-.612.102H148.532 146.696c-.102 0-.408 0-.408.204a.22.22 0 00.204.204h.51c.408.102.51.204.51.714v5.916c0 1.428 0 2.652-.102 3.264v.102c-.102.408-.102.612-.306.612h-.51c-.204 0-.306.102-.306.306 0 .102.102.204.408.204h5.712c.612.204.918.204 1.02-.306zm-10.628.406c0-.204-.102-.306-.204-.306s-.51 0-.714-.102c-.408-.102-.408-.204-.51-.714-.102-.612-.102-1.836-.102-3.264V43.35h1.836c1.53 0 1.734.408 1.734.714v.204c0 .102 0 .408.204.408.102 0 .306-.102.306-.306v-.51-1.224c0-.102 0-.306-.204-.306h-.408c-.204 0-.612.102-1.122.102H137.7c-.204 0-.816 0-1.224-.102-.204 0-.408-.102-.51-.102h-.204c-.102 0-.204.102-.306.306v.102s0 .204-.102.408c-.102.612-.204 1.122-.204 1.224 0 .204.102.204.204.204s.204-.102.306-.204v-.102c0-.102.102-.204.204-.408.204-.306.51-.408 1.53-.408h2.142v6.324c0 1.53 0 2.652-.102 3.264-.102.51-.204.714-.408.714-.102 0-.306.102-.408.102a.22.22 0 00-.204.204c0 .204.306.204.408.204H142.392c.306.102.408 0 .408-.102zm-24.174 0c0-.204-.102-.306-.204-.306s-.51 0-.714-.102c-.408-.102-.408-.204-.51-.714-.102-.612-.102-1.836-.102-3.264V43.35h1.836c1.53 0 1.734.408 1.836.714v.204c0 .102 0 .408.204.408.102 0 .306-.102.306-.306v-.51-1.224c0-.102 0-.306-.204-.306h-.408c-.204 0-.612.102-1.122.102h-6.018c-.204 0-.816 0-1.224-.102-.204 0-.408-.102-.51-.102h-.204c-.102 0-.204.102-.306.306 0 0 0 .204-.102.408-.102.612-.204 1.122-.204 1.224 0 .204.102.204.204.204s.204-.102.306-.204v-.102c0-.102.102-.204.204-.408.204-.306.51-.408 1.53-.408h2.142v6.324c0 1.428 0 2.652-.102 3.264 0 .51-.102.714-.408.714-.102 0-.306.102-.408.102-.204 0-.306.102-.306.204 0 .204.306.204.408.204H118.116c.51.204.51 0 .51 0zm-9.078 0c0-.102-.102-.306-.204-.306s-.408 0-.714-.102c-.408-.102-.408-.204-.51-.714-.102-.612-.102-1.836-.102-3.264v-2.652-3.264c0-.51.102-.612.408-.714h.408a.22.22 0 00.204-.204c0-.204-.306-.204-.408-.204h-1.53H105.468c-.102 0-.408 0-.408.204a.22.22 0 00.204.204h.408c.204.102.408.204.408.714v5.916c0 1.734 0 2.754-.102 3.264-.102.51-.102.612-.306.714-.102 0-.306.102-.408.102-.102 0-.204.102-.204.306 0 .102.102.204.408.204h3.672c.408 0 .408-.204.408-.204zm-8.874 0c0-.204-.102-.306-.204-.306s-.51 0-.714-.102c-.408-.102-.408-.306-.51-.714-.102-.612-.102-1.836-.102-3.264V43.35h1.836c1.53 0 1.734.408 1.836.714v.204c0 .102 0 .408.306.408.102 0 .306-.102.306-.306v-.51-1.224c0-.102 0-.306-.204-.306h-.408c-.306 0-.714.102-1.122.102h-6.018c-.204 0-.816 0-1.224-.102-.204 0-.408-.102-.51-.102h-.204s-.204 0-.306.408c0 0 0 .204-.102.408-.204.714-.306 1.224-.306 1.326 0 .204.102.204.204.204s.204-.102.306-.204v-.102c0-.102.102-.204.204-.408.204-.306.51-.408 1.53-.408h2.142v6.324c0 1.53 0 2.652-.102 3.264-.102.51-.102.714-.408.714-.204 0-.306.102-.408.102-.204 0-.204.102-.204.204 0 .204.306.204.408.204H100.266c.306 0 .408-.102.408-.204zm-33.66 0c0-.102-.102-.204-.306-.204-.102 0-.51 0-.816-.102-.408-.102-.51-.306-.612-.918v-7.038-3.876c0-.612.204-.816.51-.918.204 0 .306-.102.408-.102.102 0 .306-.102.306-.204 0-.306-.306-.306-.408-.306h-1.734-1.836c-.102 0-.408 0-.408.306 0 .102.102.204.306.204.102 0 .306 0 .51.102.204 0 .51.204.51.918v7.038c0 1.734 0 3.162-.102 3.876-.102.51-.204.816-.408.918-.102 0-.306.102-.51.102-.204 0-.306.102-.306.204 0 .306.306.306.408.306H66.504c.51-.102.51-.306.51-.306zm65.892-20.502c1.326-1.122 1.53-3.264 1.53-4.692v-1.632-1.53-1.734c0-.51.102-.612.408-.714h.408c.102 0 .204-.102.204-.306 0-.204-.102-.204-.408-.204h-1.326-1.734c-.306 0-.408.102-.408.204s.102.306.204.306h.51c.408.102.51.306.51.714v5.202c0 1.326-.102 2.754-.918 3.672-.51.612-1.428 1.02-2.346 1.02-.918 0-1.53-.102-2.244-.816-.612-.51-1.122-1.326-1.122-3.672v-2.142-3.264c0-.51.102-.714.408-.714h.408c.102 0 .306-.102.306-.306 0-.102-.102-.204-.408-.204h-1.632-1.836c-.306 0-.408.102-.408.204s.102.306.306.306h.51c.408.102.51.306.51.714v5.508c0 2.448.714 3.468 1.428 4.08.816.714 1.938 1.122 3.366 1.122 1.326.102 2.55-.102 3.774-1.122zm35.19.816c.306-.102.408-.204.51-.51.204-.51.408-1.836.408-2.04 0-.204-.102-.306-.306-.306-.204 0-.204.102-.306.306 0 .204-.306.918-.612 1.224-.612.612-1.326.714-2.55.714-3.162 0-5.61-2.346-5.61-5.406 0-1.326.204-2.754 1.326-3.876.714-.714 1.836-1.02 3.468-1.02 1.53 0 2.55.408 3.06.816.408.306.612.816.612 1.428 0 .204 0 .408.204.408.102 0 .306 0 .306-.408v-.612-.918c0-.306 0-.51.102-.612v-.306c0-.204-.102-.306-.306-.306-.408 0-.918-.102-1.428-.204h-.204c-.816-.102-1.734-.204-2.346-.204-2.142 0-3.774.51-4.896 1.632-1.326 1.326-1.836 3.06-1.836 4.284 0 1.938.612 3.468 1.938 4.59 1.326 1.122 2.958 1.632 5.304 1.632.918.102 2.346 0 3.162-.306zm-70.992-.918V24.48c0-.918.102-1.122.408-1.224h.408c.204 0 .306-.102.306-.306 0-.204-.306-.204-.408-.204H94.86c-.102 0-.408 0-.408.204s.102.306.204.306.51 0 .714.102c.306.102.51.204.51 1.326l.204 7.344-.714-.714c-.816-.816-1.836-1.938-2.856-2.958-1.53-1.53-2.958-3.06-3.978-4.08-.612-.612-.918-1.02-1.02-1.122-.204-.204-.408-.51-.612-.51-.306 0-.306.408-.306.918v8.568c0 1.428-.102 1.734-.408 1.734-.204.102-.51.102-.612.102a.22.22 0 00-.204.204c0 .204.306.204.408.204H88.842c.306 0 .408-.102.408-.204a.22.22 0 00-.204-.204c-.102 0-.51 0-.714-.102-.306-.102-.51-.306-.51-1.632l-.204-6.834c.714.714 2.142 2.346 3.774 3.978l.102.102c1.632 1.734 3.978 3.978 4.182 4.182.918.816 1.122 1.02 1.326 1.02.102 0 .102-.204.102-1.224zm80.58.816a.22.22 0 00-.204-.204c-.102 0-.51 0-.714-.102-.306-.102-.51-.204-.51-.714-.102-.612-.102-1.326-.102-1.53v-1.326-.306c0-.408 0-.816.204-1.224.306-.612 2.55-4.284 3.06-4.794.306-.408.51-.51.714-.714.204-.102.51-.204.714-.204.204 0 .306-.102.306-.306 0-.102-.102-.204-.306-.204h-1.53H178.194c-.306 0-.408.102-.408.204s.102.204.306.306c.102 0 .204.102.204.306 0 .204-.102.408-.306.714-.102.204-.408.714-.816 1.428-.612 1.02-1.326 2.244-1.632 2.856l-2.754-4.59c-.102-.204-.204-.306-.204-.51 0 0 0-.102.102-.102.204-.102.306-.102.306-.306 0-.204-.204-.204-.306-.204h-1.326-1.632c-.306 0-.306.102-.306.204s.102.306.306.306c.102 0 .408.102.612.204.408.306.714.612 1.02 1.122.51.816 2.652 4.182 2.754 4.386.204.408.306.714.306 1.53v2.856c0 .408-.102.612-.408.714-.102 0-.306.102-.408.102-.204 0-.204.102-.204.204 0 .204.306.204.408.204H177.378c.204 0 .306-.204.306-.306zm-23.256 0c0-.204-.102-.204-.306-.204-.102 0-.408 0-.714-.102-.408-.102-.408-.306-.51-.714-.102-.612-.102-1.836-.102-3.264v-6.324h1.836c1.53 0 1.734.408 1.734.714v.204c0 .204 0 .408.204.408.102 0 .306-.102.306-.306v-.51-1.224c0-.102 0-.306-.204-.306h-.408c-.306 0-.714.102-1.122.102h-6.018c-.204 0-.816 0-1.224-.102-.204 0-.408-.102-.51-.102-.102 0-.102-.102-.204-.102s-.204.102-.306.408c0 0 0 .204-.102.408-.204.714-.204 1.122-.204 1.224 0 .204.102.306.204.306s.204-.102.306-.204v-.102c0-.102.102-.204.204-.408.204-.306.51-.408 1.53-.408h2.142v6.324c0 1.53 0 2.652-.102 3.264-.102.51-.204.714-.408.714s-.306.102-.408.102c-.204 0-.204.102-.204.204 0 .204.306.204.408.204H153.816c.612.102.612-.102.612-.204zm-12.648 0a.22.22 0 00-.204-.204c-.102 0-.408 0-.714-.102-.408-.102-.51-.204-.51-.714-.102-.612-.102-1.836-.102-3.264v-6.222-.204c.204 0 .612-.102.816-.102h.204c.51 0 1.122.102 1.836.714.816.816.816 1.836.816 2.244 0 1.326-1.224 2.346-2.856 2.346-.204 0-.51 0-.51.306 0 .204.102.306.306.306h.51c2.55 0 4.182-1.53 4.182-3.774 0-.918-.408-1.632-.816-1.938-.306-.204-1.02-.918-3.06-.918H139.434h-1.836c-.204 0-.408.102-.408.204s.102.306.204.306h.51c.408.102.51.204.51.714v5.916c0 1.53 0 2.652-.102 3.264-.102.408-.102.612-.306.714-.102 0-.306.102-.51.102-.204 0-.204.102-.204.204s.102.204.408.204H141.372c.408.204.408 0 .408-.102zm-29.682 0c0-.102-.102-.204-.306-.204-.102 0-.51 0-.918-.204-.612-.306-.918-.408-1.836-1.326l-.306-.306c-.612-.51-3.57-3.57-4.284-4.284.51-.612 2.958-2.856 3.366-3.264l.204-.204c.51-.51.816-.816 1.428-1.02.306-.102.612-.204.816-.204.204 0 .306-.102.306-.306 0-.102-.102-.204-.408-.204h-2.652c-.204 0-.306.102-.306.204s.102.204.204.306c0 0 .102 0 .102.204s-.408.51-.714.918l-.102.102-1.734 1.734-1.836 1.836v-.714-3.264c0-.51.102-.612.408-.714h.408c.102 0 .204-.102.204-.306 0-.204-.102-.204-.408-.204h-1.53-1.734c-.204 0-.408.102-.408.204s.102.306.306.306h.51c.408.102.51.204.51.714v5.916c0 1.53 0 2.652-.102 3.264-.102.408-.102.612-.306.714-.102 0-.306.102-.408.102-.204 0-.204.102-.204.204s.102.204.408.204h3.366c.306 0 .408-.204.408-.204 0-.102-.102-.204-.306-.204-.102 0-.306 0-.51-.102h-.102c-.408-.102-.408-.306-.51-.714-.102-.612-.102-1.836-.102-3.264v-1.224c.918 1.122 3.978 4.284 4.692 4.794l.102.102c.612.51 1.122.816 1.938.918H111.69c.102 0 .408 0 .408-.306zm-27.132 0c0-.102-.102-.204-.306-.204-.204 0-.408 0-.612-.102-.306-.102-.714-.204-1.224-1.632-.51-1.224-1.428-3.468-2.244-5.406-.816-1.938-1.428-3.57-1.632-3.876 0-.102-.102-.102-.102-.204-.102-.204-.204-.408-.408-.408s-.306.204-.51.714l-3.774 9.588c-.306.816-.612 1.224-1.224 1.326h-.408c-.102 0-.306.102-.306.204 0 .204.306.204.408.204h2.958c.306 0 .408-.204.408-.204s0-.204-.306-.204h-.102c-.204 0-.408 0-.408-.306 0-.204.102-.612.204-1.02l.918-2.448h3.672l1.428 3.468c0 .102.102.204-.102.204 0 0-.102.102-.102.204 0 .204.204.204.612.204H84.456c.408.204.51 0 .51-.102zm-6.732-8.976s0-.102 0 0c0-.102 0 0 0 0l1.53 4.08h-3.06l1.53-4.08zm46.002 8.976c0-.102-.102-.204-.306-.204-.102 0-.204 0-.51-.102-.408 0-.918-.204-1.632-1.02-.816-.816-1.836-2.04-2.958-3.468l-.306-.306c1.326-1.122 1.938-2.244 1.938-3.468 0-1.326-.918-2.04-1.122-2.244-.918-.612-2.04-.714-3.06-.714h-1.938H112.506c-.204 0-.408.102-.408.204s.102.306.204.306h.51c.408.102.51.204.51.714v5.916c0 1.53 0 2.652-.102 3.264v.102c-.102.408-.102.612-.306.612-.102 0-.306.102-.408.102-.204 0-.306.102-.306.204s.102.204.408.204H116.178c.306 0 .408-.204.408-.204a.22.22 0 00-.204-.204c-.102 0-.408 0-.714-.102-.408-.102-.51-.306-.51-.714-.102-.612-.102-1.836-.102-3.264v-.408h2.142c.204.204.408.51.714 1.02l.918 1.224v.102c.918 1.122 1.428 1.836 2.142 2.244.408.204.918.306 1.734.306h1.02c.204.204.51.204.51-.102zm-8.058-10.71c1.632 0 2.652 1.122 2.652 2.856 0 1.02-.306 1.836-.918 2.244-.306.204-.714.204-1.122.204-.714 0-1.53-.102-1.632-.204-.102 0-.102-.102-.102-.102v-4.896-.102h1.122zm-44.472 6.936c0-2.142-1.836-3.366-2.958-3.876.816-.816 1.632-1.734 1.632-3.162 0-1.02-.816-2.856-3.774-2.856h-2.04-2.04c-.102 0-.408 0-.408.306 0 .102.102.204.306.204.204 0 .408 0 .612.102.51.102.612.306.714.918v7.038c0 1.734 0 3.162-.102 3.876-.102.51-.204.816-.408.918-.102 0-.408.102-.51.102-.204 0-.306.102-.306.204 0 .306.306.306.408.306h1.734c.102 0 .612 0 1.122.102h1.326c2.346-.102 4.692-1.428 4.692-4.182zm-4.896-3.162c.408 0 .816.102 1.428.51 1.53 1.02 1.734 2.754 1.734 3.468 0 1.836-1.326 2.448-2.448 2.448-.204 0-1.02 0-1.53-.306-.51-.204-.51-.408-.51-1.224v-.102-4.896c.918.102 1.224.102 1.326.102zm1.836-2.958c0 .612-.204 1.326-.612 1.734-.306.408-.612.408-1.53.408-.612 0-.918 0-1.02-.102v-4.896l.102-.102c.306-.102.612-.102.816-.102 1.632.102 2.244 1.632 2.244 3.06zm23.868-9.894c0-.102-.102-.204-.306-.204-.102 0-.51 0-1.02-.102-.51-.204-.612-.816-.714-1.428l-1.122-9.384c-.102-.51-.204-.51-.408-.51s-.306.204-.408.306l-4.488 9.282L79.56 3.06c-.102-.306-.306-.306-.408-.306-.102 0-.306.102-.306.408l-1.122 9.996v.204c-.102.51-.102.918-.51.918h-.408c-.204 0-.306.102-.306.204s.102.306.408.306h2.856c.102 0 .408 0 .408-.306a.22.22 0 00-.204-.204s-.306 0-.612-.102-.306-.204-.306-.306v-.714l.51-6.63c.306.714.918 1.938 1.428 2.958.204.408.306.714.408.918.408.816 1.428 2.754 1.836 3.57.306.51.408.816.612.816.204 0 .306-.204.714-.918l3.672-7.446.714 7.344v.408a.22.22 0 00-.204.204c0 .204.306.306.612.306.612.102 2.346.102 2.754.102.204 0 .408-.102.408-.306zm-16.422 0c0-.102-.102-.204-.306-.204-.204 0-.408 0-.714-.102-.408-.102-.816-.408-1.428-1.938-.714-1.938-2.346-6.12-3.366-8.67-.408-1.122-.714-1.938-.816-2.142-.204-.612-.306-.714-.51-.714-.204 0-.306.204-.51.816l-4.08 11.22c-.306.918-.714 1.53-1.428 1.632h-.51c-.204 0-.306.102-.306.204 0 .306.306.306.51.306h3.366c.306 0 .408-.102.408-.306 0-.102 0-.204-.306-.204h-.204c-.204 0-.51-.102-.51-.408s.102-.714.204-1.122l1.122-3.162c0-.102 0-.102.102-.102h3.876l1.632 4.386v.306a.22.22 0 00-.204.204c0 .204.204.204.612.204H75.684c.306.102.408 0 .408-.204zm-7.446-10.71l1.734 4.794h-3.264l1.53-4.794z" fill="#231F20"/></g></svg>