<svg width="52" height="52" xmlns="http://www.w3.org/2000/svg"><g fill="#FFF" fill-rule="nonzero"><path d="M40.8 4.426H11.73a7.313 7.313 0 00-7.344 7.344v27.54c.714-.204.306-4.794.204-4.998.306-.612.714-1.122 1.326-1.428-.102-.204-.204-.408-.204-.714.408-.306.714-.612 1.02-.918v-.408c0-3.876 2.244-7.242 5.61-8.874 0-.102.102-.102.204-.102.204-.102.306-.102.51-.204 0-.102-.204-.102-.204-.306h.408c.204-.102-.204-.408 0-.51.306-.204.918 0 1.02-.204 0-.408-.408.102-.51-.204.408-.102.714-.306.918-.612 0-.51-.102-.51-.204-.816.816-.714.204-3.06.612-3.774-.102-.204-.102.204-.306.102 0-.306 0-.51-.204-.714.306-.408.51-.918 1.02-1.122-.204-.612.408-.918.612-1.428-.102-1.122 0-1.734.51-2.346-.408-1.02-.408-3.57.816-3.774.204.204 0 .408 0 .714.51.408.612.816.612 1.53 0 .714-.51 1.428-.51 2.04 0 .306.306.408.306.714.102.51-.102 1.02 0 1.428.102.51 1.122 1.938 1.428 2.346-.204 1.326-.51 2.856-.204 4.284.102.102.204.204.306.204-.204.306-.102.816-.204 1.122.204.204.51.204.408.714.306.102.612.102.918.204-.102.306 0 .612.102.816 3.57 1.53 6.018 4.998 6.018 9.078h.306c.102.204-.102.204-.306.204v.102c.204.816 1.428.918 1.224 1.836.51.51.612.918.714 1.836h-.204c-.204 1.326 0 2.856-.102 4.182.204.306.408.612.408 1.122.612-.408 1.02 0 1.632.306-.204.51.102.714.204 1.224-.204.102-.204.306-.306.408.306 1.122-.306 2.754-.102 4.08 0 .102.102.102.204.102 0 .204 0 .51-.204.51.102.102.306.204.306.306-.102.306-.51.408-.408.714.102.204.204.102.408.102v.306H40.8a7.313 7.313 0 007.344-7.344V11.872c0-4.08-3.264-7.446-7.344-7.446z"/><path d="M41.616.856h-30.6c-5.61 0-10.2 4.59-10.2 10.2v30.6c0 5.61 4.59 10.2 10.2 10.2h30.6c5.61 0 10.2-4.59 10.2-10.2v-30.6c0-5.61-4.59-10.2-10.2-10.2zm8.568 40.8c0 4.692-3.876 8.568-8.568 8.568h-30.6c-4.692 0-8.568-3.876-8.568-8.568v-30.6c0-4.692 3.876-8.568 8.568-8.568h30.6c4.692 0 8.568 3.876 8.568 8.568v30.6z"/></g></svg>